<svg xmlns="http://www.w3.org/2000/svg" viewBox="0 0 291.11 51.45"><defs><style>.cls-1{fill:#26a9e0;}.cls-2{fill:#6d6e70;}.cls-3{fill:#259ec8;}.cls-4{fill:#fff;}.cls-5{fill:#e2e2e2;}</style></defs><g id="Layer_2" data-name="Layer 2"><g id="Layer_1-2" data-name="Layer 1"><path class="cls-1" d="M56.81,41c-8.13,0-12.24-3-12.24-10.55V12.66h8.49v18c0,2.37,1.28,3.45,3.75,3.45a8.81,8.81,0,0,0,3.09-.41v-21h8.49V39C65.82,40.23,61.29,41,56.81,41Z"/><path class="cls-1" d="M85.52,41c-8.74,0-13.07-3.25-13.07-9.16,0-7.36,7.52-9.06,15.9-9.52V21.25C88.35,19,86.81,18,83.93,18a23,23,0,0,0-7.87,1.69L74,14.05a31.75,31.75,0,0,1,11-2c7.56,0,11.37,2.88,11.37,10.24V39C94.22,40.08,90,41,85.52,41Zm2.83-13.38c-4.58.2-8,.72-8,4,0,2.27,1.9,3.5,4.94,3.5a11.31,11.31,0,0,0,3.08-.41Z"/><path class="cls-1" d="M116.13,19.24a9.45,9.45,0,0,0-3.13-.51,8,8,0,0,0-2.88.46v21.2h-8.49V14.05a33.71,33.71,0,0,1,12-2,25.3,25.3,0,0,1,4,.31Z"/><path class="cls-1" d="M134,51.45h-8.9l4.16-11.06L118.81,12.66h9.57l4.32,16a41.2,41.2,0,0,1,.88,4.68h.1s.36-2.52.93-4.68l4.32-15.95h9.57Z"/><path class="cls-2" d="M182.3,40.39V22.28c0-2.27-1.39-3.6-3.81-3.6a5.36,5.36,0,0,0-3.14.92V40.39h-8.49V22.12c0-2.11-1.44-3.44-4-3.44a7.67,7.67,0,0,0-3,.56V40.39h-8.49V14.05a30.38,30.38,0,0,1,10.91-2c4.58,0,7.25,1.23,8.95,2.57A17.43,17.43,0,0,1,180.76,12c6.32,0,10,3.55,10,9.26V40.39Z"/><path class="cls-2" d="M220.73,27.63l-17.29,2.26c.67,3,3.3,4.53,6.74,4.53a18.56,18.56,0,0,0,7.82-1.7L220.37,39a27.85,27.85,0,0,1-10.85,2c-9.63,0-14.36-6.28-14.36-14.51C195.16,18,200.1,12,208.43,12c8.08,0,12.4,5.4,12.4,13A22.17,22.17,0,0,1,220.73,27.63ZM208.23,18c-3,0-5.3,2.06-5.35,6.63l9.77-1.23C212.65,19.91,211,18,208.23,18Z"/><path class="cls-2" d="M238.48,41c-9.21,0-14.2-5.15-14.2-14.41,0-8.59,4.43-14.2,13-14.2a13.25,13.25,0,0,1,3.5.51V0h8.49V39C247.13,40.13,243,41,238.48,41Zm2.32-21.87a7.83,7.83,0,0,0-2.58-.41c-3.6,0-5.45,3.14-5.45,7.77,0,5.19,2,7.92,5.56,7.92a7.55,7.55,0,0,0,2.47-.36Z"/><path class="cls-1" d="M258.86,8.85a4.55,4.55,0,0,1-4.69-4.37,4.72,4.72,0,0,1,9.42,0A4.59,4.59,0,0,1,258.86,8.85Z"/><rect class="cls-2" x="254.64" y="12.66" width="8.49" height="27.73"/><path class="cls-2" d="M280.31,41c-8.75,0-13.07-3.25-13.07-9.16,0-7.36,7.51-9.06,15.9-9.52V21.25c0-2.21-1.54-3.24-4.43-3.24a23.1,23.1,0,0,0-7.87,1.69l-2-5.65a31.64,31.64,0,0,1,10.95-2c7.57,0,11.37,2.88,11.37,10.24V39C289,40.08,284.73,41,280.31,41Zm2.83-13.38c-4.58.2-8,.72-8,4,0,2.27,1.91,3.5,4.94,3.5a11.4,11.4,0,0,0,3.09-.41Z"/><polygon class="cls-1" points="0 0.21 29.63 0.21 39.45 10.31 39.45 30.8 29.54 41.01 0 41.01 0 0.21"/><polygon class="cls-3" points="10.09 11.4 10.09 30.41 0 41.01 0 0.21 10.09 11.4"/><polygon class="cls-4" points="28.61 11.4 10.09 11.4 10.09 11.41 18.89 21.17 10.09 30.41 10.09 30.43 19.05 21.23 28.61 30.44 28.61 11.4 28.58 11.43 28.61 11.4"/><polygon class="cls-5" points="19.05 21.22 10.09 30.41 10.09 11.41 19.05 21.22"/></g></g></svg>