<svg id="Isolation_Mode" data-name="Isolation Mode" xmlns="http://www.w3.org/2000/svg" viewBox="0 0 291.11 51.45"><defs><style>.cls-1{fill:#26a9e0;}.cls-2{fill:#fff;}.cls-3{fill:#259ec8;}.cls-4{fill:#e2e2e2;}</style></defs><path class="cls-1" d="M359.46,163.56c-8.13,0-12.24-3-12.24-10.55v-17.8h8.48v18c0,2.37,1.29,3.45,3.76,3.45a8.81,8.81,0,0,0,3.09-.41v-21H371v26.34C368.46,162.78,363.94,163.56,359.46,163.56Z" transform="translate(-302.65 -122.55)"/><path class="cls-1" d="M388.17,163.56c-8.75,0-13.07-3.25-13.07-9.16,0-7.36,7.51-9.06,15.9-9.52V143.8c0-2.21-1.54-3.24-4.43-3.24a22.87,22.87,0,0,0-7.87,1.7l-2.05-5.66a31.64,31.64,0,0,1,11-2c7.57,0,11.37,2.88,11.37,10.24v16.72C396.86,162.63,392.59,163.56,388.17,163.56ZM391,150.18c-4.58.2-8,.72-8,4,0,2.27,1.91,3.5,4.94,3.5a11.4,11.4,0,0,0,3.09-.41Z" transform="translate(-302.65 -122.55)"/><path class="cls-1" d="M418.78,141.79a9.47,9.47,0,0,0-3.14-.51,8,8,0,0,0-2.88.46v21.2h-8.49V136.6a33.75,33.75,0,0,1,12-2,25.34,25.34,0,0,1,4,.31Z" transform="translate(-302.65 -122.55)"/><path class="cls-1" d="M436.64,174h-8.91l4.17-11.06-10.44-27.73H431l4.32,15.95a42.56,42.56,0,0,1,.87,4.68h.11s.36-2.52.92-4.68l4.32-15.95h9.57Z" transform="translate(-302.65 -122.55)"/><path class="cls-2" d="M485,162.94V144.83c0-2.27-1.39-3.6-3.81-3.6a5.32,5.32,0,0,0-3.14.92v20.79h-8.49V144.67c0-2.11-1.44-3.44-4-3.44a7.63,7.63,0,0,0-3,.56v21.15h-8.49V136.6a30.36,30.36,0,0,1,10.9-2c4.58,0,7.26,1.23,9,2.57a17.39,17.39,0,0,1,9.46-2.57c6.33,0,10,3.55,10,9.26v19.09Z" transform="translate(-302.65 -122.55)"/><path class="cls-2" d="M523.38,150.18l-17.29,2.26c.67,3,3.29,4.53,6.74,4.53a18.59,18.59,0,0,0,7.82-1.7l2.37,6.28a27.86,27.86,0,0,1-10.86,2c-9.62,0-14.35-6.28-14.35-14.51,0-8.49,4.94-14.46,13.27-14.46,8.08,0,12.4,5.4,12.4,13A22.17,22.17,0,0,1,523.38,150.18Zm-12.5-9.62c-3,0-5.3,2.06-5.35,6.63L515.3,146C515.3,142.46,513.6,140.56,510.88,140.56Z" transform="translate(-302.65 -122.55)"/><path class="cls-2" d="M541.13,163.56c-9.21,0-14.2-5.15-14.2-14.41,0-8.59,4.42-14.2,13-14.2a13.17,13.17,0,0,1,3.49.51V122.55h8.49v39C549.77,162.68,545.66,163.56,541.13,163.56Zm2.31-21.87a7.71,7.71,0,0,0-2.57-.41c-3.6,0-5.45,3.14-5.45,7.77,0,5.19,2,7.92,5.55,7.92a7.46,7.46,0,0,0,2.47-.36Z" transform="translate(-302.65 -122.55)"/><path class="cls-2" d="M561.5,131.4a4.41,4.41,0,1,1,0-8.8,4.41,4.41,0,1,1,0,8.8Z" transform="translate(-302.65 -122.55)"/><rect class="cls-2" x="254.64" y="12.66" width="8.49" height="27.73"/><path class="cls-2" d="M583,163.56c-8.75,0-13.07-3.25-13.07-9.16,0-7.36,7.51-9.06,15.9-9.52V143.8c0-2.21-1.55-3.24-4.43-3.24a22.87,22.87,0,0,0-7.87,1.7l-2.06-5.66a31.75,31.75,0,0,1,11-2c7.56,0,11.37,2.88,11.37,10.24v16.72C591.65,162.63,587.38,163.56,583,163.56Zm2.83-13.38c-4.58.2-8,.72-8,4,0,2.27,1.9,3.5,4.94,3.5a11.46,11.46,0,0,0,3.09-.41Z" transform="translate(-302.65 -122.55)"/><polygon class="cls-1" points="0 0.21 29.63 0.21 39.45 10.31 39.45 30.8 29.54 41.01 0 41.01 0 0.21"/><polygon class="cls-3" points="10.09 11.4 10.09 30.41 0 41.01 0 0.21 10.09 11.4"/><polygon class="cls-2" points="28.61 11.4 10.09 11.4 10.09 11.41 18.89 21.17 10.09 30.41 10.09 30.43 19.05 21.23 28.61 30.44 28.61 11.4 28.58 11.43 28.61 11.4"/><polygon class="cls-4" points="19.05 21.22 10.09 30.41 10.09 11.41 19.05 21.22"/></svg>